<svg xmlns="http://www.w3.org/2000/svg">


	<symbol id="twitter-icon" viewBox="0 0 31 24">
		<path d="M27.2371 5.98123C27.2559 6.24372 27.2559 6.50626 27.2559 6.76875C27.2559 14.775 21.1622 24 10.0246 24C6.59335 24 3.40587 23.0062 0.724609 21.2813C1.21213 21.3375 1.68083 21.3563 2.18711 21.3563C5.01831 21.3563 7.6246 20.4 9.70586 18.7688C7.04335 18.7125 4.8121 16.9688 4.04333 14.5687C4.41836 14.625 4.79334 14.6625 5.18713 14.6625C5.73086 14.6625 6.27465 14.5874 6.78087 14.4563C4.00588 13.8937 1.92456 11.4562 1.92456 8.51249V8.43752C2.73078 8.88752 3.66836 9.16877 4.66204 9.20622C3.03078 8.1187 1.96207 6.26247 1.96207 4.16246C1.96207 3.03748 2.26202 2.00623 2.78705 1.10622C5.76832 4.78122 10.2496 7.18118 15.2745 7.44372C15.1808 6.99372 15.1245 6.52502 15.1245 6.05626C15.1245 2.71872 17.8246 0 21.1808 0C22.9245 0 24.4995 0.731248 25.6058 1.9125C26.9745 1.65001 28.287 1.14374 29.4496 0.450003C28.9995 1.85628 28.0433 3.03754 26.7871 3.78748C28.0058 3.6563 29.1871 3.31872 30.2745 2.85002C29.4497 4.04997 28.4184 5.11868 27.2371 5.98123Z" />
	</symbol>

	<symbol id="instagram-icon" viewBox="0 0 26 24">
		<path d="M13.0029 5.8467C9.59691 5.8467 6.84962 8.594 6.84962 12C6.84962 15.406 9.59691 18.1533 13.0029 18.1533C16.4089 18.1533 19.1562 15.406 19.1562 12C19.1562 8.594 16.4089 5.8467 13.0029 5.8467ZM13.0029 16.0004C10.8019 16.0004 9.00247 14.2064 9.00247 12C9.00247 9.7936 10.7965 7.99955 13.0029 7.99955C15.2093 7.99955 17.0034 9.7936 17.0034 12C17.0034 14.2064 15.204 16.0004 13.0029 16.0004V16.0004ZM20.8431 5.595C20.8431 6.39295 20.2005 7.03024 19.4079 7.03024C18.61 7.03024 17.9727 6.38759 17.9727 5.595C17.9727 4.80241 18.6153 4.15977 19.4079 4.15977C20.2005 4.15977 20.8431 4.80241 20.8431 5.595ZM24.9186 7.05166C24.8275 5.12909 24.3884 3.42609 22.9799 2.02298C21.5768 0.619882 19.8738 0.180743 17.9513 0.0843468C15.9698 -0.0281156 10.0307 -0.0281156 8.04922 0.0843468C6.132 0.175388 4.429 0.614526 3.02054 2.01763C1.61209 3.42073 1.1783 5.12373 1.08191 7.0463C0.969443 9.02778 0.969443 14.9669 1.08191 16.9483C1.17295 18.8709 1.61209 20.5739 3.02054 21.977C4.429 23.3801 6.12665 23.8193 8.04922 23.9157C10.0307 24.0281 15.9698 24.0281 17.9513 23.9157C19.8738 23.8246 21.5768 23.3855 22.9799 21.977C24.383 20.5739 24.8222 18.8709 24.9186 16.9483C25.031 14.9669 25.031 9.03314 24.9186 7.05166V7.05166ZM22.3587 19.0744C21.941 20.1241 21.1323 20.9327 20.0773 21.3558C18.4975 21.9824 14.7488 21.8378 13.0029 21.8378C11.2571 21.8378 7.50297 21.977 5.9285 21.3558C4.87885 20.9381 4.07019 20.1294 3.64712 19.0744C3.02054 17.4946 3.16514 13.7458 3.16514 12C3.16514 10.2542 3.0259 6.50006 3.64712 4.92558C4.06484 3.87593 4.87349 3.06728 5.9285 2.6442C7.50833 2.01763 11.2571 2.16222 13.0029 2.16222C14.7488 2.16222 18.5029 2.02298 20.0773 2.6442C21.127 3.06192 21.9356 3.87058 22.3587 4.92558C22.9853 6.50541 22.8407 10.2542 22.8407 12C22.8407 13.7458 22.9853 17.4999 22.3587 19.0744Z" />
	</symbol>

	<symbol id="facebook-icon" viewBox="0 0 13 24">
		<path d="M12.084 13.5L12.7505 9.15656H8.58289V6.33797C8.58289 5.14969 9.16508 3.99141 11.0316 3.99141H12.9263V0.293438C12.9263 0.293438 11.207 0 9.56305 0C6.13086 0 3.88742 2.08031 3.88742 5.84625V9.15656H0.0722656V13.5H3.88742V24H8.58289V13.5H12.084Z" />
	</symbol>

	<symbol id="linkedin-icon" width="25" height="24" viewBox="0 0 25 24">
		<path d="M5.87177 24H0.895949V7.97643H5.87177V24ZM3.38118 5.79066C1.79008 5.79066 0.499512 4.47278 0.499512 2.88167C0.499512 2.1174 0.803116 1.38444 1.34353 0.844022C1.88395 0.303604 2.61692 0 3.38118 0C4.14545 0 4.87841 0.303604 5.41883 0.844022C5.95925 1.38444 6.26285 2.1174 6.26285 2.88167C6.26285 4.47278 4.97175 5.79066 3.38118 5.79066ZM24.4947 24H19.5296V16.1998C19.5296 14.3409 19.4921 11.9569 16.9426 11.9569C14.3555 11.9569 13.9591 13.9766 13.9591 16.0659V24H8.98863V7.97643H13.7609V10.1622H13.8305C14.4948 8.90323 16.1175 7.57463 18.5385 7.57463C23.5743 7.57463 24.5 10.8908 24.5 15.198V24H24.4947Z" />
	</symbol>

	<symbol id="twitter" viewBox="0 0 50 50">
		<path d="M36.7376 18.9812C36.7564 19.2437 36.7564 19.5063 36.7564 19.7687C36.7564 27.775 30.6626 37 19.5251 37C16.0938 37 12.9064 36.0062 10.2251 34.2813C10.7126 34.3375 11.1813 34.3563 11.6876 34.3563C14.5188 34.3563 17.1251 33.4 19.2063 31.7688C16.5438 31.7125 14.3126 29.9688 13.5438 27.5687C13.9189 27.625 14.2938 27.6625 14.6876 27.6625C15.2313 27.6625 15.7751 27.5874 16.2814 27.4563C13.5064 26.8937 11.425 24.4562 11.425 21.5125V21.4375C12.2313 21.8875 13.1688 22.1688 14.1625 22.2062C12.5313 21.1187 11.4626 19.2625 11.4626 17.1625C11.4626 16.0375 11.7625 15.0062 12.2875 14.1062C15.2688 17.7812 19.7501 20.1812 24.775 20.4437C24.6813 19.9937 24.625 19.525 24.625 19.0563C24.625 15.7187 27.325 13 30.6813 13C32.425 13 34 13.7312 35.1063 14.9125C36.475 14.65 37.7875 14.1437 38.95 13.45C38.5 14.8563 37.5438 16.0375 36.2875 16.7875C37.5063 16.6563 38.6876 16.3187 39.775 15.85C38.9502 17.05 37.9189 18.1187 36.7376 18.9812Z" fill="#565656"/>
		<rect x="0.5" y="0.5" width="49" height="49" stroke="#565656"/>
	</symbol>

</svg>
